<svg id="Capa_1" enable-background="new 0 0 512 512" height="512" viewBox="0 0 512 512" width="512" xmlns="http://www.w3.org/2000/svg"><g><path d="m158.544 512h-146.421c-6.695 0-12.123-5.428-12.123-12.123v-487.754c0-6.695 5.428-12.123 12.123-12.123h146.421c6.695 0 12.123 5.428 12.123 12.123v487.754c0 6.695-5.428 12.123-12.123 12.123z" fill="#90d8f9"/><path d="m158.544 0h-22.824c6.695 0 12.123 5.428 12.123 12.123v487.754c0 6.695-5.428 12.123-12.123 12.123h22.823c6.695 0 12.123-5.428 12.123-12.123v-487.754c.001-6.695-5.427-12.123-12.122-12.123z" fill="#75cef9"/><path d="m132.688 124.396h-94.709c-4.934 0-8.933-4-8.933-8.933v-35.179c0-4.934 4-8.933 8.933-8.933h94.709c4.934 0 8.933 4 8.933 8.933v35.178c0 4.934-4 8.934-8.933 8.934z" fill="#f4fbff"/><path d="m132.688 215.919h-94.709c-4.934 0-8.933-4-8.933-8.933v-35.178c0-4.934 4-8.933 8.933-8.933h94.709c4.934 0 8.933 4 8.933 8.933v35.178c0 4.933-4 8.933-8.933 8.933z" fill="#f4fbff"/><path d="m132.688 71.351h-23.058c4.934 0 8.933 3.999 8.933 8.933v35.179c0 4.934-3.999 8.933-8.933 8.933h23.058c4.934 0 8.933-3.999 8.933-8.933v-35.179c0-4.933-4-8.933-8.933-8.933z" fill="#e4f6ff"/><path d="m132.688 162.874h-23.058c4.934 0 8.933 3.999 8.933 8.933v35.178c0 4.934-3.999 8.933-8.933 8.933h23.058c4.934 0 8.933-3.999 8.933-8.933v-35.178c0-4.934-4-8.933-8.933-8.933z" fill="#e4f6ff"/><circle cx="85.333" cy="329.551" fill="#ecbe6b" r="33.23"/><circle cx="85.333" cy="424.904" fill="#ecbe6b" r="33.23"/><path d="m85.333 296.321c-4.054 0-7.937.728-11.529 2.057 12.669 4.687 21.7 16.874 21.7 31.172s-9.032 26.485-21.7 31.173c3.592 1.329 7.475 2.057 11.529 2.057 18.352 0 33.23-14.877 33.23-33.23 0-18.351-14.877-33.229-33.23-33.229z" fill="#eab14d"/><path d="m85.333 391.675c-4.054 0-7.937.728-11.529 2.057 12.669 4.687 21.7 16.874 21.7 31.172s-9.032 26.485-21.7 31.172c3.592 1.329 7.475 2.057 11.529 2.057 18.352 0 33.23-14.878 33.23-33.23s-14.877-33.228-33.23-33.228z" fill="#eab14d"/><path d="m329.21 512h-146.42c-6.695 0-12.123-5.428-12.123-12.123v-487.754c0-6.695 5.427-12.123 12.123-12.123h146.42c6.695 0 12.123 5.428 12.123 12.123v487.754c0 6.695-5.427 12.123-12.123 12.123z" fill="#b3e59f"/><path d="m329.21 0h-22.823c6.695 0 12.123 5.428 12.123 12.123v487.754c0 6.695-5.428 12.123-12.123 12.123h22.823c6.695 0 12.123-5.428 12.123-12.123v-487.754c0-6.695-5.427-12.123-12.123-12.123z" fill="#95d6a4"/><path d="m303.354 124.396h-94.709c-4.934 0-8.933-4-8.933-8.933v-35.179c0-4.934 4-8.933 8.933-8.933h94.709c4.934 0 8.933 4 8.933 8.933v35.178c.001 4.934-3.999 8.934-8.933 8.934z" fill="#f4fbff"/><path d="m303.354 215.919h-94.709c-4.934 0-8.933-4-8.933-8.933v-35.178c0-4.934 4-8.933 8.933-8.933h94.709c4.934 0 8.933 4 8.933 8.933v35.178c.001 4.933-3.999 8.933-8.933 8.933z" fill="#f4fbff"/><path d="m303.354 71.351h-23.058c4.934 0 8.933 3.999 8.933 8.933v35.179c0 4.934-3.999 8.933-8.933 8.933h23.058c4.934 0 8.933-3.999 8.933-8.933v-35.179c.001-4.933-3.999-8.933-8.933-8.933z" fill="#e4f6ff"/><path d="m303.354 162.874h-23.058c4.934 0 8.933 3.999 8.933 8.933v35.178c0 4.934-3.999 8.933-8.933 8.933h23.058c4.934 0 8.933-3.999 8.933-8.933v-35.178c.001-4.934-3.999-8.933-8.933-8.933z" fill="#e4f6ff"/><circle cx="256" cy="329.551" fill="#ecbe6b" r="33.23"/><circle cx="256" cy="424.904" fill="#ecbe6b" r="33.23"/><path d="m256 296.321c-4.054 0-7.937.728-11.529 2.057 12.669 4.687 21.7 16.874 21.7 31.172s-9.032 26.485-21.7 31.173c3.592 1.329 7.475 2.057 11.529 2.057 18.352 0 33.23-14.877 33.23-33.23 0-18.351-14.878-33.229-33.23-33.229z" fill="#eab14d"/><path d="m256 391.675c-4.054 0-7.937.728-11.529 2.057 12.669 4.687 21.7 16.874 21.7 31.172s-9.032 26.485-21.7 31.172c3.592 1.329 7.475 2.057 11.529 2.057 18.352 0 33.23-14.878 33.23-33.23s-14.878-33.228-33.23-33.228z" fill="#eab14d"/><path d="m499.877 512h-146.421c-6.695 0-12.123-5.428-12.123-12.123v-487.754c0-6.695 5.428-12.123 12.123-12.123h146.421c6.695 0 12.123 5.428 12.123 12.123v487.754c0 6.695-5.428 12.123-12.123 12.123z" fill="#dd636e"/><path d="m499.877 0h-22.823c6.695 0 12.123 5.428 12.123 12.123v487.754c0 6.695-5.428 12.123-12.123 12.123h22.823c6.695 0 12.123-5.428 12.123-12.123v-487.754c0-6.695-5.428-12.123-12.123-12.123z" fill="#da4a54"/><path d="m474.021 124.396h-94.709c-4.934 0-8.933-4-8.933-8.933v-35.179c0-4.934 4-8.933 8.933-8.933h94.709c4.934 0 8.933 4 8.933 8.933v35.178c0 4.934-3.999 8.934-8.933 8.934z" fill="#f4fbff"/><path d="m474.021 215.919h-94.709c-4.934 0-8.933-4-8.933-8.933v-35.178c0-4.934 4-8.933 8.933-8.933h94.709c4.934 0 8.933 4 8.933 8.933v35.178c0 4.933-3.999 8.933-8.933 8.933z" fill="#f4fbff"/><path d="m474.021 71.351h-23.058c4.934 0 8.933 3.999 8.933 8.933v35.179c0 4.934-3.999 8.933-8.933 8.933h23.058c4.934 0 8.933-3.999 8.933-8.933v-35.179c0-4.933-3.999-8.933-8.933-8.933z" fill="#e4f6ff"/><path d="m474.021 162.874h-23.058c4.934 0 8.933 3.999 8.933 8.933v35.178c0 4.934-3.999 8.933-8.933 8.933h23.058c4.934 0 8.933-3.999 8.933-8.933v-35.178c0-4.934-3.999-8.933-8.933-8.933z" fill="#e4f6ff"/><circle cx="426.667" cy="329.551" fill="#ecbe6b" r="33.23"/><circle cx="426.667" cy="424.904" fill="#ecbe6b" r="33.23"/><path d="m426.667 296.321c-4.054 0-7.937.728-11.529 2.057 12.669 4.687 21.7 16.874 21.7 31.172s-9.032 26.485-21.7 31.173c3.592 1.329 7.475 2.057 11.529 2.057 18.352 0 33.23-14.877 33.23-33.23-.001-18.351-14.878-33.229-33.23-33.229z" fill="#eab14d"/><path d="m426.667 391.675c-4.054 0-7.937.728-11.529 2.057 12.669 4.687 21.7 16.874 21.7 31.172s-9.032 26.485-21.7 31.172c3.592 1.329 7.475 2.057 11.529 2.057 18.352 0 33.23-14.878 33.23-33.23s-14.878-33.228-33.23-33.228z" fill="#eab14d"/><g><g><path d="m100.177 42.66h-29.687c-4.268 0-7.726-3.459-7.726-7.726s3.459-7.726 7.726-7.726h29.687c4.268 0 7.726 3.459 7.726 7.726s-3.459 7.726-7.726 7.726z" fill="#30579d"/></g><g><path d="m120.891 263.726h-71.116c-4.268 0-7.726-3.459-7.726-7.726 0-4.268 3.459-7.726 7.726-7.726h71.116c4.268 0 7.726 3.459 7.726 7.726 0 4.268-3.458 7.726-7.726 7.726z" fill="#30579d"/></g><g><path d="m270.844 42.66h-29.687c-4.268 0-7.726-3.459-7.726-7.726s3.459-7.726 7.726-7.726h29.687c4.268 0 7.726 3.459 7.726 7.726s-3.459 7.726-7.726 7.726z" fill="#30579d"/></g><g><path d="m291.558 263.726h-71.116c-4.268 0-7.726-3.459-7.726-7.726 0-4.268 3.459-7.726 7.726-7.726h71.116c4.268 0 7.726 3.459 7.726 7.726 0 4.268-3.458 7.726-7.726 7.726z" fill="#30579d"/></g><g><path d="m441.511 42.66h-29.688c-4.268 0-7.726-3.459-7.726-7.726s3.459-7.726 7.726-7.726h29.688c4.268 0 7.726 3.459 7.726 7.726s-3.459 7.726-7.726 7.726z" fill="#30579d"/></g><g><path d="m462.224 263.726h-71.115c-4.268 0-7.726-3.459-7.726-7.726 0-4.268 3.459-7.726 7.726-7.726h71.115c4.268 0 7.726 3.459 7.726 7.726 0 4.268-3.458 7.726-7.726 7.726z" fill="#30579d"/></g></g></g></svg>