<svg id="Layer_1" height="512" viewBox="0 0 90 90" width="512" xmlns="http://www.w3.org/2000/svg"><path d="m12.537 47.957h24.188c2.911 0 5.26 2.423 5.26 5.432v23.88c0 3.007-2.349 5.432-5.26 5.432h-24.188c-2.917 0-5.265-2.425-5.265-5.432v-23.88c0-3.009 2.348-5.432 5.265-5.432z"/><path d="m12.537 7.074h24.188c2.911 0 5.26 2.424 5.26 5.432v23.88c0 3.008-2.349 5.432-5.26 5.432h-24.188c-2.917 0-5.265-2.424-5.265-5.432v-23.88c0-3.008 2.348-5.432 5.265-5.432z"/><path d="m53.375 7.074h24.187c2.917 0 5.261 2.424 5.261 5.432v23.88c0 3.008-2.344 5.432-5.261 5.432h-24.187c-2.917 0-5.26-2.424-5.26-5.432v-23.88c.001-3.008 2.343-5.432 5.26-5.432z"/><path d="m53.375 47.957h24.187c2.917 0 5.261 2.423 5.261 5.432v23.88c0 3.007-2.344 5.432-5.261 5.432h-24.187c-2.917 0-5.26-2.425-5.26-5.432v-23.88c.001-3.009 2.343-5.432 5.26-5.432z"/></svg>