<svg id="Layer_1" viewBox="0 0 24 24" xmlns="http://www.w3.org/2000/svg" data-name="Layer 1"><path d="m6 20.5h10c1.38 0 2.5-1.12 2.5-2.5v-1c0-.28-.22-.5-.5-.5s-.5.22-.5.5v1c0 .83-.67 1.5-1.5 1.5h-4.5v-15h4.5c.83 0 1.5.67 1.5 1.5v1c0 .28.22.5.5.5s.5-.22.5-.5v-1c0-1.38-1.12-2.5-2.5-2.5h-10c-1.38 0-2.5 1.12-2.5 2.5v12c0 1.38 1.12 2.5 2.5 2.5z"/><path d="m18 14.5c.28 0 .5-.22.5-.5v-1.5h1.5c.28 0 .5-.22.5-.5s-.22-.5-.5-.5h-1.5v-1.5c0-.28-.22-.5-.5-.5s-.5.22-.5.5v1.5h-1.5c-.28 0-.5.22-.5.5s.22.5.5.5h1.5v1.5c0 .28.22.5.5.5z"/></svg>