<?xml version="1.0" encoding="UTF-8" standalone="no"?>
<svg
   height="512"
   viewBox="0 0 128 128"
   width="512"
   version="1.1"
   id="svg2"
   sodipodi:docname="confirm.svg"
   inkscape:version="1.3.2 (091e20e, 2023-11-25, custom)"
   xmlns:inkscape="http://www.inkscape.org/namespaces/inkscape"
   xmlns:sodipodi="http://sodipodi.sourceforge.net/DTD/sodipodi-0.dtd"
   xmlns="http://www.w3.org/2000/svg"
   xmlns:svg="http://www.w3.org/2000/svg">
  <defs
     id="defs2" />
  <sodipodi:namedview
     id="namedview2"
     pagecolor="#ffffff"
     bordercolor="#000000"
     borderopacity="0.25"
     inkscape:showpageshadow="2"
     inkscape:pageopacity="0.0"
     inkscape:pagecheckerboard="0"
     inkscape:deskcolor="#d1d1d1"
     inkscape:zoom="1.5175781"
     inkscape:cx="255.67053"
     inkscape:cy="255.34106"
     inkscape:window-width="1920"
     inkscape:window-height="991"
     inkscape:window-x="-9"
     inkscape:window-y="-9"
     inkscape:window-maximized="1"
     inkscape:current-layer="g2" />
  <g
     id="g2">
    <circle
       style="fill:#d45500;stroke-width:0.38117;fill-opacity:1"
       id="path2"
       cx="-64"
       cy="64"
       r="44.925625"
       transform="rotate(-90)" />
    <path
       style="fill:#ffffff;stroke-width:0.137685"
       d="m 48.873574,53.744185 c 0,-1.915888 0.615039,-3.857247 1.845393,-5.823665 1.229941,-1.966418 3.025354,-3.594957 5.385001,-4.885893 2.359784,-1.290522 5.112797,-1.936127 8.259039,-1.936127 2.924155,0 5.506026,0.539863 7.744785,1.618488 2.23876,1.079176 3.967809,2.546485 5.188386,4.401792 1.220028,1.855857 1.830248,3.872392 1.830248,6.05057 0,1.714454 -0.347931,3.217287 -1.04379,4.507671 -0.695861,1.290935 -1.523073,2.405221 -2.48081,3.342856 -0.958151,0.937911 -2.677424,2.516195 -5.158096,4.734714 -0.685809,0.625366 -1.235723,1.175142 -1.648779,1.648916 -0.413605,0.47405 -0.721331,0.90762 -0.922765,1.300711 -0.201846,0.393366 -0.358395,0.786595 -0.468955,1.179961 -0.111112,0.393091 -0.277435,1.08427 -0.499109,2.072298 -0.383314,2.09777 -1.583516,3.146379 -3.600051,3.146379 -1.048884,0 -1.931446,-0.342698 -2.647133,-1.028645 -0.7161,-0.685534 -1.073943,-1.704128 -1.073943,-3.055507 0,-1.694215 0.261877,-3.161524 0.786595,-4.401791 0.524304,-1.240543 1.220027,-2.329632 2.087443,-3.267267 0.866864,-0.937911 2.036912,-2.052058 3.509317,-3.342993 1.290522,-1.129293 2.223614,-1.981564 2.798449,-2.556399 0.574835,-0.574835 1.058798,-1.214795 1.452164,-1.92112 0.393229,-0.705773 0.589981,-1.471991 0.589981,-2.299203 0,-1.613393 -0.600307,-2.974686 -1.800095,-4.084152 -1.2002,-1.108915 -2.748331,-1.663924 -4.643842,-1.663924 -2.218932,0 -3.852566,0.55969 -4.901037,1.679069 -1.048885,1.11938 -1.936128,2.768159 -2.662279,4.946336 -0.685809,2.279377 -1.986795,3.418583 -3.902683,3.418583 -1.129844,0 -2.082762,-0.398048 -2.858893,-1.194969 -0.776406,-0.796645 -1.16454,-1.658829 -1.164541,-2.586689 z M 63.636993,86.9015 c -1.230491,0 -2.304435,-0.398593 -3.221968,-1.195101 -0.917947,-0.79637 -1.376576,-1.910658 -1.376576,-3.342858 0,-1.270696 0.443346,-2.339407 1.33114,-3.206823 0.887242,-0.867003 1.976331,-1.300849 3.267266,-1.300849 1.270696,0 2.339407,0.433846 3.206823,1.300849 0.866865,0.867416 1.300849,1.936127 1.300849,3.206823 0,1.41196 -0.453809,2.521291 -1.36143,3.32785 -0.90762,0.806554 -1.95623,1.210109 -3.146104,1.210109 z"
       id="path2-9" />
  </g>
</svg>
