<?xml version="1.0" encoding="UTF-8"?>
<svg width="512pt" height="512pt" version="1.1" viewBox="0 0 512 512" xmlns="http://www.w3.org/2000/svg">
 <path d="m256 221.23c19.199 0 34.766 15.566 34.766 34.766s-15.566 34.766-34.766 34.766-34.766-15.566-34.766-34.766 15.566-34.766 34.766-34.766zm-111.35 0c19.199 0 34.766 15.566 34.766 34.766s-15.566 34.766-34.766 34.766c-19.199 0-34.766-15.566-34.766-34.766s15.566-34.766 34.766-34.766zm222.7 0c19.199 0 34.766 15.566 34.766 34.766s-15.566 34.766-34.766 34.766c-19.199 0-34.766-15.566-34.766-34.766s15.566-34.766 34.766-34.766z" fill-rule="evenodd"/>
</svg>
