<?xml version="1.0" encoding="UTF-8" standalone="no"?>
<svg
   id="Layer_1"
   enable-background="new 0 0 32 32"
   height="512"
   viewBox="0 0 32 32"
   width="512"
   version="1.1"
   sodipodi:docname="6681848-hourglass-ui-duration-time and date-sand watch-sand clock-hourglasses-waiting-sand-clock.svg"
   inkscape:version="1.3.2 (091e20e, 2023-11-25, custom)"
   xmlns:inkscape="http://www.inkscape.org/namespaces/inkscape"
   xmlns:sodipodi="http://sodipodi.sourceforge.net/DTD/sodipodi-0.dtd"
   xmlns="http://www.w3.org/2000/svg"
   xmlns:svg="http://www.w3.org/2000/svg">
  <defs
     id="defs5" />
  <sodipodi:namedview
     id="namedview5"
     pagecolor="#ffffff"
     bordercolor="#000000"
     borderopacity="0.25"
     inkscape:showpageshadow="2"
     inkscape:pageopacity="0.0"
     inkscape:pagecheckerboard="0"
     inkscape:deskcolor="#d1d1d1"
     showguides="false"
     inkscape:zoom="1.5878906"
     inkscape:cx="256"
     inkscape:cy="256"
     inkscape:window-width="1920"
     inkscape:window-height="1009"
     inkscape:window-x="-8"
     inkscape:window-y="-8"
     inkscape:window-maximized="1"
     inkscape:current-layer="Layer_1" />
  <g
     id="Hourglass"
     transform="matrix(0.80357143,0,0,0.80357143,3.1428571,3.1428571)">
    <g
       id="g5">
      <path
         d="m 20.678,28 -1.277,-1.685 c -0.815,-1.088 -2.059,-1.711 -3.41,-1.711 -0.003,0 -0.006,0 -0.009,0 -1.35,0.003 -2.587,0.628 -3.392,1.71 L 11.321,28 Z"
         fill="#f4e8d0"
         id="path1"
         style="fill:#ffffff" />
      <path
         d="m 24.667,28 h -0.931 v -5.741 c 0,-2.475 -1.2,-4.819 -3.21,-6.247 2.01,-1.453 3.21,-3.797 3.21,-6.271 V 4 h 0.931 c 0.553,0 1,-0.448 1,-1 0,-0.552 -0.447,-1 -1,-1 H 7.333 c -0.553,0 -1,0.448 -1,1 0,0.552 0.447,1 1,1 h 0.922 v 5.741 c 0,2.474 1.2,4.818 3.21,6.248 -2.01,1.453 -3.21,3.797 -3.21,6.271 V 28 H 7.333 c -0.553,0 -1,0.448 -1,1 0,0.552 0.447,1 1,1 h 17.334 c 0.553,0 1,-0.448 1,-1 0,-0.552 -0.447,-1 -1,-1 z M 11.634,6.378 c 0,-0.552 0.447,-1 1,-1 h 6.725 c 0.553,0 1,0.448 1,1 V 9.74 c 0,2.06 -1.439,3.781 -3.362,4.236 v 3.747 c 0,0.552 -0.447,1 -1,1 -0.553,0 -1,-0.448 -1,-1 V 13.976 C 13.074,13.521 11.635,11.8 11.635,9.74 V 6.378 Z m 5.488,15.493 c 0,0.616 -0.505,1.121 -1.121,1.121 -0.628,0 -1.121,-0.505 -1.121,-1.121 0,-0.627 0.493,-1.121 1.121,-1.121 0.616,0 1.121,0.494 1.121,1.121 z m -1.14,2.733 h 0.009 c 1.352,0 2.595,0.624 3.41,1.711 L 20.678,28 h -9.357 l 1.269,-1.687 c 0.806,-1.082 2.043,-1.707 3.392,-1.709 z"
         fill="#b9f3f8"
         id="path2"
         style="fill:#d6d624;fill-opacity:1" />
      <g
         fill="#f4e8d0"
         id="g4"
         style="fill:#ffffff">
        <path
           d="m 14.996,13.976 v 3.747 c 0,0.552 0.447,1 1,1 0.553,0 1,-0.448 1,-1 V 13.976 C 18.919,13.521 20.358,11.8 20.358,9.74 V 6.378 c 0,-0.552 -0.447,-1 -1,-1 h -6.725 c -0.553,0 -1,0.448 -1,1 V 9.74 c 0.001,2.061 1.44,3.781 3.363,4.236 z"
           id="path3"
           style="fill:#ffffff" />
        <path
           d="m 16.001,20.75 c -0.628,0 -1.121,0.494 -1.121,1.121 0,0.616 0.493,1.121 1.121,1.121 0.616,0 1.121,-0.505 1.121,-1.121 0,-0.627 -0.505,-1.121 -1.121,-1.121 z"
           id="path4"
           style="fill:#ffffff" />
      </g>
    </g>
  </g>
</svg>
