<svg id="Layer_1" height="512" viewBox="0 0 90 90" width="512" xmlns="http://www.w3.org/2000/svg"><path d="m11.085 11.474c-2.916 0-5.265 2.328-5.265 5.224v6.178c0 2.896 2.349 5.229 5.265 5.229h68.072c2.921 0 5.271-2.333 5.271-5.229v-6.178c0-2.896-2.35-5.224-5.271-5.224z"/><path d="m11.085 36.724c-2.916 0-5.265 2.33-5.265 5.224v6.178c0 2.896 2.349 5.229 5.265 5.229h68.072c2.921 0 5.271-2.333 5.271-5.229v-6.178c0-2.895-2.35-5.224-5.271-5.224z"/><path d="m11.085 61.974c-2.916 0-5.265 2.328-5.265 5.224v6.178c0 2.896 2.349 5.229 5.265 5.229h68.072c2.921 0 5.271-2.333 5.271-5.229v-6.178c0-2.896-2.35-5.224-5.271-5.224z"/></svg>