<?xml version="1.0" encoding="UTF-8" standalone="no"?>
<!-- Generator: Adobe Illustrator 19.0.0, SVG Export Plug-In . SVG Version: 6.00 Build 0)  -->

<svg
   version="1.1"
   id="Layer_1"
   x="0px"
   y="0px"
   viewBox="0 0 511.99998 511.99997"
   xml:space="preserve"
   sodipodi:docname="upload.svg"
   width="512"
   height="512"
   inkscape:version="1.3.2 (091e20e, 2023-11-25, custom)"
   xmlns:inkscape="http://www.inkscape.org/namespaces/inkscape"
   xmlns:sodipodi="http://sodipodi.sourceforge.net/DTD/sodipodi-0.dtd"
   xmlns="http://www.w3.org/2000/svg"
   xmlns:svg="http://www.w3.org/2000/svg"><defs
   id="defs16" /><sodipodi:namedview
   id="namedview16"
   pagecolor="#ffffff"
   bordercolor="#000000"
   borderopacity="0.25"
   inkscape:showpageshadow="2"
   inkscape:pageopacity="0.0"
   inkscape:pagecheckerboard="0"
   inkscape:deskcolor="#d1d1d1"
   inkscape:zoom="0.71057487"
   inkscape:cx="520.0015"
   inkscape:cy="168.17369"
   inkscape:window-width="1920"
   inkscape:window-height="1009"
   inkscape:window-x="3832"
   inkscape:window-y="-7"
   inkscape:window-maximized="1"
   inkscape:current-layer="Layer_1" />
<g
   id="g1"
   transform="matrix(1.2585828,0,0,1.2585828,76.000005,76.000005)">
	<path
   style="fill:#39b29d"
   d="M 231.641,113.009 C 227.726,72.22 193.766,40.217 151.957,40.217 c -32.351,0 -60.053,19.201 -72.819,46.752 -3.844,-1.225 -7.849,-2.056 -12.095,-2.056 -22.214,0 -40.226,18.021 -40.226,40.226 0,4.416 0.885,8.591 2.199,12.551 C 11.737,147.765 0,166.26 0,187.696 c 0,32.092 26.013,58.105 58.105,58.105 v 0.018 h 160.896 v -0.018 c 37.044,0 67.035,-30.009 67.035,-67.044 0,-32.682 -23.421,-59.83 -54.395,-65.748 z m -54.833,51.463 h -15.912 v 35.864 c 0,4.943 -3.987,8.957 -8.939,8.957 h -17.878 c -4.934,0 -8.939,-4.014 -8.939,-8.957 v -35.864 h -15.921 c -9.708,0 -13.668,-6.481 -8.823,-14.383 l 33.799,-33.316 c 6.624,-6.615 10.816,-6.838 17.646,0 l 33.799,33.316 c 4.863,7.911 0.876,14.383 -8.832,14.383 z"
   id="path1" />
</g>















</svg>
